# xmcd CD database file
#
# Track frame offsets:
#	150
#	9777
#	18025
#	28132
#	39630
#	51102
#	62367
#	75670
#	89370
#	103162
#	113235
#	123905
#	135887
#	147752
#	163562
#	173597
#	184422
#	193955
#	208695
#	217950
#	228677
#	238147
#	250862
#
# Disc length: 3515 seconds
#
# Revision: 0
# Processed by: cddbd v1.5.1PL2 Copyright (c) Steve Scherf et al.
# Submitted via: CDex 1.51
#
DISCID=330db917
DTITLE=Various Artist - 4th and Beale and Further South
DYEAR=1998
DGENRE=Blues
TTITLE0=Joe Hill Louis - 4th and Beale
TTITLE1=Joe Hill Louis - Ruthie Mae
TTITLE2=Joe Hill Louis - Joe Hill Boogie
TTITLE3=Joe Hill Louis - Going Down to Louisiana
TTITLE4=Joe Hill Louis - Get Up Off It
TTITLE5=Joe Hill Louis - Sweetest Woman I Ever Knew
TTITLE6=Big Boy Crudup - Mean Old World
TTITLE7=Big Boy Crudup - Baby I've Been Mistreated
TTITLE8=Big Boy Crudup - My Baby Boogies All The Time
TTITLE9=Big Boy Crudup - I Wonder
TTITLE10=Frankie Lee Sims - What Will Lucy Do
TTITLE11=Frankie Lee Sims - Misery Blues
TTITLE12=Frankie Lee Sims - Hey Little Girl
TTITLE13=Frankie Lee Sims - Walking With Frankie (Full Length Version)
TTITLE14=Frankie Lee Sims - My Talk Didn't Do No Good
TTITLE15=Frankie Lee Sims - I Warned You Baby
TTITLE16=Frankie Lee Sims - She Likes To Boogie Real Low
TTITLE17=Frankie Lee Sims - Well Goodbye Baby
TTITLE18=Frankie Lee Sims - How Long
TTITLE19=Mercy Baby - Marked Deck
TTITLE20=Mercy Baby - Rock 'N' Roll Baby
TTITLE21=Mercy Baby - Pleadin'
TTITLE22=Mercy Baby - Don't Lie To Me
EXTD=YEAR: 1998
EXTT0=
EXTT1=
EXTT2=
EXTT3=
EXTT4=
EXTT5=
EXTT6=
EXTT7=
EXTT8=
EXTT9=
EXTT10=
EXTT11=
EXTT12=
EXTT13=
EXTT14=
EXTT15=
EXTT16=
EXTT17=
EXTT18=
EXTT19=
EXTT20=
EXTT21=
EXTT22=
PLAYORDER=
